# xmcd
#
# Track frame offsets:
#	150
#	15325
#	30117
#	43611
#	56602
#	71372
#	85419
#	98939
#	112395
#	124900
#	138473
#	154306
#	168000
#	180599
#	193761
#	204940
#	217549
#	230280
#	242293
#	251655
#	263556
#	276252
#	289408
#	304308
#	317151
#
# Disc length: 4396 seconds
#
# Revision: 1
# Processed by: cddbd v1.4PL0 Copyright (c) Steve Scherf et al.
# Submitted via: CDmax 1.8
#
DISCID=5a112a19
DTITLE=Various Artist - Harmonica Blues
DYEAR=1999
DGENRE=Blues
TTITLE0=DeFord Bailey: Davidson County Blues
TTITLE1=Alfred Lewis: Mississippi Swamp Moan
TTITLE2=Ollis Martin: Police and High Sheriff Come Riding Down
TTITLE3=Jed Davenport: How Long How Long Blues
TTITLE4=The Bubbling-Over Fire: Don't Mistreat Your Good Boy Friend
TTITLE5=Noah Lewis: Like I Want To Be
TTITLE6=Jaybird Coleman: Man Trouble Blues
TTITLE7=Martin and Robert: Maxwell and Peoria Blues
TTITLE8=Eddie Mapp: Riding The Blinds
TTITLE9=Georgia Cotton Pickers: She's Coming Back Some Cold Rainy Day
TTITLE10=Mississippi Sarah and Daddy Stovepipe: Greenville Strut
TTITLE11=Chicken Wilson and Skeeter Hinton: House Snake Blues
TTITLE12=Jed Davenport and His Beale Street Jug Band: Save Me Some
TTITLE13=Elijah Jones: Mean Actin' Mama
TTITLE14=George Clarke: More Blues
TTITLE15=Slim Barton and Eddie Mapp: Fourth Avenue Blues
TTITLE16=Noah Lewis: Devil in the Wood Pile
TTITLE17=Smith and Harper: Insurance Policy Blues
TTITLE18=Sonny Terry: Fox Chase
TTITLE19=Jazz Gillum: Key to the Highway
TTITLE20=Little Buddy Doyle: Three-Six-Nine Blues
TTITLE21=Sleepy John Estes: Jailhouse Blues
TTITLE22=Jazz Gillum: Worried and Bothered
TTITLE23=Sonny Terry: Shake Down
TTITLE24=Sonny Boy Williamson: Sonny Boy's Jump
EXTD=
EXTT0=
EXTT1=
EXTT2=
EXTT3=
EXTT4=
EXTT5=
EXTT6=
EXTT7=
EXTT8=
EXTT9=
EXTT10=
EXTT11=
EXTT12=
EXTT13=
EXTT14=
EXTT15=
EXTT16=
EXTT17=
EXTT18=
EXTT19=
EXTT20=
EXTT21=
EXTT22=
EXTT23=
EXTT24=
PLAYORDER=
